Coordinates
version=1
nRows=13
nColumns=40
inDegrees=yes

Units are S.I. units (second, meters, Newtons, ...)
If the header above contains a line with 'inDegrees', this indicates whether rotational values are in degrees (yes) or radians (no).

endheader
time	pelvis_tilt	pelvis_list	pelvis_rotation	pelvis_tx	pelvis_ty	pelvis_tz	hip_flexion_r	hip_adduction_r	hip_rotation_r	knee_angle_r	knee_angle_r_beta	ankle_angle_r	subtalar_angle_r	mtp_angle_r	hip_flexion_l	hip_adduction_l	hip_rotation_l	knee_angle_l	knee_angle_l_beta	ankle_angle_l	subtalar_angle_l	mtp_angle_l	lumbar_extension	lumbar_bending	lumbar_rotation	arm_flex_r	arm_add_r	arm_rot_r	elbow_flex_r	pro_sup_r	wrist_flex_r	wrist_dev_r	arm_flex_l	arm_add_l	arm_rot_l	elbow_flex_l	pro_sup_l	wrist_flex_l	wrist_dev_l
      3.70000000	     12.36668206	     -5.23100171	     88.60575282	      0.26136731	      0.90641550	      0.27599415	     21.58026100	     15.59461887	     -7.43297357	     16.42591727	      0.28668634	     -7.71464906	    -19.32300187	      0.00000000	      6.75599171	    -33.03766998	    -21.33193467	     68.71264557	      1.19926190	    -24.40272869	    -12.53894480	      0.00000000	      0.00000000	      0.00000000	      0.00000000	     36.83347926	    -14.82009754	     36.83347926	     78.58731661	     43.95287185	      0.00000000	      0.00000000	     36.83347926	    -14.82009754	     36.83347926	     78.58731661	     43.95287185	      0.00000000	      0.00000000
      3.70500000	     12.43166548	     -5.28315291	     88.63169850	      0.26224904	      0.90740799	      0.26949250	     20.95989075	     15.77643887	     -7.34662830	     16.03919153	      0.27993670	     -7.48264093	    -19.26770893	      0.00000000	      8.08824142	    -33.26301090	    -20.49307333	     69.90622034	      1.22009371	    -23.45445064	    -12.53751268	      0.00000000	      0.00000000	      0.00000000	      0.00000000	     36.85315125	    -14.82081070	     36.85315125	     78.55943804	     43.97528154	      0.00000000	      0.00000000	     36.85315125	    -14.82081070	     36.85315125	     78.55943804	     43.97528154	      0.00000000	      0.00000000
      3.71000000	     12.48107394	     -5.31154217	     88.61269658	      0.26314157	      0.90846235	      0.26302008	     20.30510787	     15.94295202	     -7.23493294	     15.66234379	      0.27335947	     -7.21394095	    -19.07626367	      0.00000000	      9.35648265	    -33.45075777	    -19.73823424	     71.00543712	      1.23927866	    -22.48911162	    -12.43605184	      0.00000000	      0.00000000	      0.00000000	      0.00000000	     36.86927434	    -14.82139435	     36.86927434	     78.53670485	     43.99332057	      0.00000000	      0.00000000	     36.86927434	    -14.82139435	     36.86927434	     78.53670485	     43.99332057	      0.00000000	      0.00000000
      3.71500000	     12.73355567	     -5.41945463	     88.65502041	      0.26390904	      0.90923275	      0.25656998	     19.74389963	     16.29662351	     -7.28449786	     15.24809540	      0.26612947	     -7.03612051	    -18.94094163	      0.00000000	     10.80810721	    -33.88036730	    -18.90223635	     72.13514219	      1.25899574	    -21.40817665	    -12.21728614	      0.00000000	      0.00000000	      0.00000000	      0.00000000	     36.89296498	    -14.82225067	     36.89296498	     78.50347722	     44.01933156	      0.00000000	      0.00000000	     36.89296498	    -14.82225067	     36.89296498	     78.50347722	     44.01933156	      0.00000000	      0.00000000
      3.72000000	     12.45651889	     -5.29509825	     88.35621610	      0.26504138	      0.91076802	      0.25029267	     18.93237558	     16.17488370	     -6.91630779	     15.01820429	      0.26211711	     -6.65778517	    -18.63642953	      0.00000000	     11.61876367	    -33.65199135	    -18.63941877	     72.90071600	      1.27235752	    -20.51243268	    -12.34087652	      0.00000000	      0.00000000	      0.00000000	      0.00000000	     36.89713673	    -14.82240123	     36.89713673	     78.49765539	     44.02383616	      0.00000000	      0.00000000	     36.89713673	    -14.82240123	     36.89713673	     78.49765539	     44.02383616	      0.00000000	      0.00000000
      3.72500000	     12.85582307	     -5.47672600	     88.66393479	      0.26509179	      0.91142672	      0.24359588	     18.34308895	     16.57087046	     -7.24394332	     14.31660807	      0.24987195	     -6.57220915	    -18.27049443	      0.00000000	     13.36278481	    -34.11818404	    -17.46522402	     73.90781419	      1.28993470	    -19.29033111	    -11.75481918	      0.00000000	      0.00000000	      0.00000000	      0.00000000	     36.92610036	    -14.82344557	     36.92610036	     78.45738006	     44.05467799	      0.00000000	      0.00000000	     36.92610036	    -14.82344557	     36.92610036	     78.45738006	     44.05467799	      0.00000000	      0.00000000
      3.73000000	     12.57438479	     -5.42278394	     88.41823364	      0.26596762	      0.91288355	      0.23724356	     17.55180689	     16.40518515	     -6.94710968	     13.96972230	      0.24381765	     -6.20423582	    -17.87984940	      0.00000000	     14.25762038	    -33.82356548	    -17.19386554	     74.51046452	      1.30045293	    -18.28984502	    -11.65936732	      0.00000000	      0.00000000	      0.00000000	      0.00000000	     36.93192591	    -14.82365528	     36.93192591	     78.44932417	     44.06076528	      0.00000000	      0.00000000	     36.93192591	    -14.82365528	     36.93192591	     78.44932417	     44.06076528	      0.00000000	      0.00000000
      3.73500000	     12.85225856	     -5.41258885	     88.62735160	      0.26584073	      0.91391966	      0.23057212	     16.74197297	     16.66400190	     -7.28445101	     13.29999387	      0.23212868	     -6.07920444	    -17.34039450	      0.00000000	     15.63188466	    -34.06588653	    -16.24949033	     75.23118947	      1.31303196	    -17.13660553	    -11.13978935	      0.00000000	      0.00000000	      0.00000000	      0.00000000	     36.95796480	    -14.82459171	     36.95796480	     78.41344692	     44.08760229	      0.00000000	      0.00000000	     36.95796480	    -14.82459171	     36.95796480	     78.41344692	     44.08760229	      0.00000000	      0.00000000
      3.74000000	     12.57017662	     -5.39392496	     88.39274169	      0.26648184	      0.91532079	      0.22423721	     15.96480443	     16.46444364	     -7.00993774	     12.90444503	      0.22522505	     -5.76532580	    -16.83874194	      0.00000000	     16.54753772	    -33.72891749	    -16.03232742	     75.66592654	      1.32061955	    -16.15926101	    -10.93518932	      0.00000000	      0.00000000	      0.00000000	      0.00000000	     36.96380717	    -14.82480149	     36.96380717	     78.40543916	     44.09351726	      0.00000000	      0.00000000	     36.96380717	    -14.82480149	     36.96380717	     78.40543916	     44.09351726	      0.00000000	      0.00000000
      3.74500000	     12.69628717	     -5.21717819	     88.56998595	      0.26608411	      0.91673384	      0.21751920	     14.95085405	     16.53603001	     -7.36745887	     12.23342691	      0.21351358	     -5.62116930	    -16.11110629	      0.00000000	     17.60342812	    -33.71222475	    -15.26976408	     76.09947868	      1.32818646	    -15.05111113	    -10.40109023	      0.00000000	      0.00000000	      0.00000000	      0.00000000	     36.98237157	    -14.82546760	     36.98237157	     78.38006187	     44.11212235	      0.00000000	      0.00000000	     36.98237157	    -14.82546760	     36.98237157	     78.38006187	     44.11212235	      0.00000000	      0.00000000
      3.75000000	     12.61978270	     -5.13677724	     88.54374788	      0.26606420	      0.91806020	      0.21095627	     14.05381605	     16.45721362	     -7.44641238	     11.66166794	      0.20353450	     -5.37498576	    -15.41455622	      0.00000000	     18.56917407	    -33.50878144	    -14.83772851	     76.40254143	      1.33347590	    -14.04774447	     -9.99662275	      0.00000000	      0.00000000	      0.00000000	      0.00000000	     36.99947393	    -14.82608033	     36.99947393	     78.35680709	     44.12894188	      0.00000000	      0.00000000	     36.99947393	    -14.82608033	     36.99947393	     78.35680709	     44.12894188	      0.00000000	      0.00000000
      3.75500000	     12.36192455	     -5.14111812	     88.30911903	      0.26642760	      0.91929331	      0.20459732	     13.28660683	     16.24198123	     -7.26921474	     11.22223662	      0.19586498	     -5.07776956	    -14.81757512	      0.00000000	     19.44157463	    -33.16944162	    -14.75164870	     76.59125717	      1.33676962	    -13.13729514	     -9.78797139	      0.00000000	      0.00000000	      0.00000000	      0.00000000	     37.00480356	    -14.82627106	     37.00480356	     78.34958638	     44.13412057	      0.00000000	      0.00000000	     37.00480356	    -14.82627106	     37.00480356	     78.34958638	     44.13412057	      0.00000000	      0.00000000
      3.76000000	     12.37139723	     -4.80361715	     88.50161676	      0.26561567	      0.92094337	      0.19771383	     12.05249867	     16.15075593	     -7.71186553	     10.48881459	      0.18306435	     -4.88493290	    -13.84705155	      0.00000000	     20.15880740	    -32.92968137	    -14.18963835	     76.66296422	      1.33802114	    -12.09754914	     -9.23631506	      0.00000000	      0.00000000	      0.00000000	      0.00000000	     37.02117627	    -14.82685665	     37.02117627	     78.32745546	     44.14988629	      0.00000000	      0.00000000	     37.02117627	    -14.82685665	     37.02117627	     78.32745546	     44.14988629	      0.00000000	      0.00000000
